# xmcd CD database file
#
# Track frame offsets:
#	150
#	12691
#	25046
#	38738
#	51673
#	62481
#	73522
#	93129
#	103398
#	115467
#	126411
#	138211
#	150912
#	164199
#	175645
#	186268
#	197900
#	210479
#	222568
#	235427
#	248074
#	261859
#	273142
#	284280
#	296163
#
# Disc length: 4101 seconds
#
# Revision: 1
# Processed by: cddbd v1.5.2PL0 Copyright (c) Steve Scherf et al.
# Submitted via: CDex 1.51
#
DISCID=83100319
DTITLE=Various Artist - I Just Love Country -01-03
DYEAR=1900
DGENRE=Country
TTITLE0=Cash, Johnny -I Walk the Line
TTITLE1=Cline, Patsy -Crazy
TTITLE2=Dean, Jimmy -Big Bad John
TTITLE3=Reeves, Jim -Four Walls
TTITLE4=Van Dyke, Leroy -Walk On By
TTITLE5=Jones, George -Tender Years
TTITLE6=Robbins, Marty -El Paso
TTITLE7=Rodgers, Jimmie -Honeycomb
TTITLE8=Williams, Hank -Take These Chains From My Heart
TTITLE9=Young, Faron -Hello Walls
TTITLE10=Rainwater, Marvin -Whole Lotta Woman
TTITLE11=Horton, Johnny -North to Alaska
TTITLE12=Morgan, George -Candy Kisses
TTITLE13=Robbins, Marty -A White Sport Coat (And a Pink Carnation)
TTITLE14=Locklin, Hank -Please Help Me I'm Falling
TTITLE15=Horton, Johnny -Battle of New Orleans
TTITLE16=Reeves, Jim -Bimbo
TTITLE17=Lee, Brenda -I'm Sorry
TTITLE18=Browns, The -The Three Bells
TTITLE19=Jones, George -White Lightning
TTITLE20=Cash, Johnny -Don't Take Your Guns To Town
TTITLE21=Arnold, Eddy -That Do Make It Nice
TTITLE22=Pierce, Webb -I Don't Care
TTITLE23=Williams, Hank -Long Gone Lonesome Blues
TTITLE24=Price, Ray -Crazy Arms
EXTD=
EXTT0=
EXTT1=
EXTT2=
EXTT3=
EXTT4=
EXTT5=
EXTT6=
EXTT7=
EXTT8=
EXTT9=
EXTT10=
EXTT11=
EXTT12=
EXTT13=
EXTT14=
EXTT15=
EXTT16=
EXTT17=
EXTT18=
EXTT19=
EXTT20=
EXTT21=
EXTT22=
EXTT23=
EXTT24=
PLAYORDER=
